<svg width="26" height="26" viewBox="0 0 26 26" fill="none" xmlns="http://www.w3.org/2000/svg">
<path d="M5.2 12.74C5.02667 14.9067 6.49999 17.0733 8.58 17.8533C10.66 18.6333 13.26 18.1133 14.6467 16.2933C15.5133 15.1667 15.6867 13.6933 15.6 12.3067C15.6 12.3067 12.22 12.3067 10.4867 12.3067C10.4867 12.9133 10.4867 13.52 10.4867 14.04C11.5267 14.04 12.48 14.04 13.52 14.04C13.0867 16.2067 10.0533 16.9867 8.40666 15.5133C6.76 14.2133 6.84666 11.5267 8.58 10.3133C9.79333 9.36 11.5267 9.62 12.74 10.4C13.1733 9.96667 13.6933 9.53333 14.1267 9.01333C13.0867 8.23333 11.8733 7.71333 10.5733 7.71333C7.8 7.71333 5.28667 10.0533 5.2 12.74ZM19.9333 10.4H18.2C18.2 11.0067 18.2 11.5267 18.2 12.1333C17.5933 12.1333 17.0733 12.1333 16.4667 12.1333V13.8667C17.0733 13.8667 17.5933 13.8667 18.2 13.8667C18.2 14.4733 18.2 14.9933 18.2 15.6H19.9333C19.9333 14.9933 19.9333 14.4733 19.9333 13.8667C20.54 13.8667 21.06 13.8667 21.6667 13.8667V12.1333C21.06 12.1333 20.54 12.1333 19.9333 12.1333C19.9333 11.5267 19.9333 11.0067 19.9333 10.4ZM13 0C20.1933 0 26 5.80667 26 13C26 20.1933 20.1933 26 13 26C5.80667 26 0 20.1933 0 13C0 5.80667 5.80667 0 13 0Z" fill="white" fill-opacity="0.8"/>
</svg>
