<svg width="27" height="26" viewBox="0 0 27 26" fill="none" xmlns="http://www.w3.org/2000/svg">
<path d="M18.9532 10.66C19.4732 10.3133 19.9065 9.88 20.2532 9.36C19.8198 9.53333 19.2998 9.70667 18.7798 9.79333C19.2998 9.44667 19.7332 9.01333 19.9065 8.40667C19.3865 8.66667 18.8665 8.92667 18.2598 9.01333C17.8265 8.49333 17.1332 8.23333 16.3532 8.23333C14.9665 8.23333 13.7532 9.36 13.7532 10.8333C13.7532 11.0067 13.7532 11.2667 13.8398 11.44C11.6732 11.3533 9.85317 10.3133 8.55317 8.75333C8.29317 9.1 8.2065 9.53333 8.2065 10.0533C8.2065 10.92 8.63984 11.7 9.33317 12.22C8.89984 12.22 8.55317 12.1333 8.2065 11.8733C8.2065 13.0867 9.07317 14.1267 10.2865 14.3867C10.1132 14.4733 9.85317 14.4733 9.59317 14.4733C9.41984 14.4733 9.2465 14.4733 9.07317 14.3867C9.41984 15.4267 10.3732 16.12 11.4998 16.2067C10.6332 16.9 9.5065 17.3333 8.29317 17.3333C8.11984 17.3333 7.85984 17.3333 7.6865 17.3333C8.81317 18.0267 10.1998 18.46 11.5865 18.46C16.2665 18.46 18.8665 14.56 18.8665 11.18C18.9532 10.8333 18.9532 10.7467 18.9532 10.66ZM13.6665 0C20.8598 0 26.6665 5.80667 26.6665 13C26.6665 20.1933 20.8598 26 13.6665 26C6.47317 26 0.666504 20.1933 0.666504 13C0.666504 5.80667 6.47317 0 13.6665 0Z" fill="white" fill-opacity="0.8"/>
</svg>
