<svg width="27" height="26" viewBox="0 0 27 26" fill="none" xmlns="http://www.w3.org/2000/svg">
<path d="M13.4202 11.7C13.4202 10.7467 13.0735 6.58667 13.0735 6.41333C12.9868 6.24 12.9002 6.15333 12.7268 6.06667C12.1202 5.89333 9.86683 6.58667 9.4335 7.02C9.26016 7.19333 9.26017 7.36667 9.26017 7.45333C9.34683 7.62667 12.1202 12.0467 12.1202 12.0467C12.5535 12.74 12.9002 12.6533 12.9868 12.5667C13.0735 12.6533 13.4202 12.5667 13.4202 11.7ZM15.7602 13.6933C18.1002 13.0867 18.1868 13.0867 18.2735 13C18.4468 12.9133 18.4468 12.74 18.4468 12.5667C18.3602 11.96 17.4068 10.4867 16.8868 10.2267C16.7135 10.14 16.5402 10.14 16.3668 10.2267C16.2802 10.3133 16.1935 10.4 14.9802 12.1333C14.9802 12.1333 14.4602 12.9133 14.3735 12.9133C14.2002 13.0867 14.2002 13.3467 14.3735 13.6067C14.5468 13.8667 14.8068 13.9533 14.9802 13.8667C15.1535 13.8667 15.4135 13.78 15.7602 13.6933ZM16.8002 18.8933C17.3202 18.72 18.4468 17.2467 18.5335 16.64C18.5335 16.4667 18.5335 16.2933 18.3602 16.2067C18.2735 16.12 18.1868 16.12 16.1935 15.4267C16.1935 15.4267 15.3268 15.1667 15.3268 15.08C15.0668 14.9933 14.8935 15.08 14.7202 15.2533C14.5468 15.4267 14.5468 15.7733 14.6335 15.9467L14.9802 16.5533C16.1935 18.5467 16.2802 18.72 16.3668 18.8067C16.4535 18.8933 16.6268 18.8933 16.8002 18.8933ZM13.3335 19.5867C13.3335 19.5 13.3335 19.4133 13.4202 17.2467V16.2933C13.4202 16.0333 13.2468 15.86 13.0735 15.7733C12.8135 15.6867 12.5535 15.7733 12.3802 15.9467L11.9468 16.4667C10.3868 18.2867 10.3002 18.3733 10.3002 18.46C10.3002 18.5467 10.3002 18.6333 10.3002 18.6333C10.3002 18.72 10.3868 18.8067 10.3868 18.8933C10.7335 19.3267 12.4668 19.9333 12.9868 19.8467C13.1602 19.8467 13.2468 19.76 13.3335 19.5867ZM8.3935 12.74C8.1335 13.0867 8.04683 14.2133 8.1335 14.9933C8.1335 15.2533 8.22016 15.4267 8.30683 15.6C8.39349 15.7733 8.56683 15.86 8.74016 15.86C8.82683 15.86 8.9135 15.86 10.9935 15.1667L11.9468 14.9067C12.2068 14.82 12.2935 14.6467 12.3802 14.3867C12.3802 14.1267 12.2935 13.8667 12.0335 13.78L11.4268 13.52C9.26017 12.5667 9.08683 12.5667 9.00016 12.5667C8.6535 12.48 8.48017 12.5667 8.3935 12.74ZM13.3335 0C20.5268 0 26.3335 5.80667 26.3335 13C26.3335 20.1933 20.5268 26 13.3335 26C6.14016 26 0.333496 20.1933 0.333496 13C0.333496 5.80667 6.14016 0 13.3335 0Z" fill="white" fill-opacity="0.8"/>
</svg>
