<svg width="69" height="77" viewBox="0 0 69 77" fill="none" xmlns="http://www.w3.org/2000/svg">
<path d="M34.2047 18.5601C25.538 18.5601 18.4963 25.6182 18.4963 34.3051C18.4963 43.2635 26.0797 48.4214 26.0797 53.0363V54.1222C26.0797 55.208 26.8922 56.0224 27.9755 56.0224H40.163C41.2463 56.0224 42.0588 55.208 42.0588 54.1222V53.0363C42.0588 48.4214 49.6422 43.2635 49.6422 34.3051C49.913 25.6182 42.8713 18.5601 34.2047 18.5601Z" stroke="#FFE195" stroke-width="3" stroke-miterlimit="10" stroke-linecap="round" stroke-linejoin="round"/>
<path d="M34.5 10.144V2" stroke="#FFE195" stroke-width="3" stroke-miterlimit="10" stroke-linecap="round" stroke-linejoin="round"/>
<path d="M58.875 34.5762H67" stroke="#FFE195" stroke-width="3" stroke-miterlimit="10" stroke-linecap="round" stroke-linejoin="round"/>
<path d="M2 34.5762H10.125" stroke="#FFE195" stroke-width="3" stroke-miterlimit="10" stroke-linecap="round" stroke-linejoin="round"/>
<path d="M51.8335 51.9497L57.521 57.6505" stroke="#FFE195" stroke-width="3" stroke-miterlimit="10" stroke-linecap="round" stroke-linejoin="round"/>
<path d="M11.4792 11.501L17.1667 17.2018" stroke="#FFE195" stroke-width="3" stroke-miterlimit="10" stroke-linecap="round" stroke-linejoin="round"/>
<path d="M17.1667 51.9497L11.4792 57.6505" stroke="#FFE195" stroke-width="3" stroke-miterlimit="10" stroke-linecap="round" stroke-linejoin="round"/>
<path d="M57.521 11.501L51.8335 17.2018" stroke="#FFE195" stroke-width="3" stroke-miterlimit="10" stroke-linecap="round" stroke-linejoin="round"/>
<path d="M40.7308 62.1672H26.9889C25.7939 62.1672 24.8977 63.1297 24.8977 64.413V69.2254C24.8977 70.8295 25.7939 71.792 26.9889 71.792H28.7813C29.9762 73.7169 31.7687 75.0002 33.8598 75.0002C35.951 75.0002 37.7434 73.7169 38.6396 71.792H40.4321C41.9257 71.792 42.822 70.8295 42.822 69.2254V64.413C42.822 63.1297 41.9257 62.1672 40.7308 62.1672Z" stroke="#FFE195" stroke-width="3" stroke-miterlimit="10" stroke-linecap="round" stroke-linejoin="round"/>
</svg>
