<svg width="80" height="80" viewBox="0 0 80 80" fill="none" xmlns="http://www.w3.org/2000/svg">
<path d="M0.000204154 39.9817C-0.0694456 18.145 17.6912 0 40.014 0C62.2323 0 80.4108 18.2146 79.9929 40.8175C79.575 62.6194 61.6054 80.2071 39.5961 79.9982C17.6912 79.7892 -0.0694456 61.9228 0.000204154 39.9817ZM76.5104 40.0513C76.6497 20.4784 60.8393 3.48272 39.9792 3.4479C19.7111 3.41307 3.69164 19.7122 3.41304 39.4941C3.16927 59.9028 19.5021 76.3761 39.6309 76.5503C60.3865 76.7244 76.5801 59.868 76.5104 40.0513Z" fill="white" fill-opacity="0.8"/>
<path d="M39.9791 46.9123C39.8747 47.1212 39.7702 47.2606 39.7005 47.3999C37.1583 52.6588 34.6509 57.9177 32.6311 63.4204C32.5614 63.5945 32.3525 63.7687 32.1784 63.8035C31.447 63.9776 31.0291 63.7338 30.7157 63.0373C27.9994 56.8729 25.283 50.7433 22.497 44.5789C20.0941 39.2851 17.6216 33.9914 15.1838 28.6976C14.9401 28.2101 14.6963 27.7225 14.4177 27.2697C13.6515 25.9463 12.5023 25.2846 11.0048 25.2149C10.6914 25.1801 10.378 25.1801 10.0994 25.1453C9.71632 25.1104 9.57702 24.9015 9.61185 24.4139C9.64667 23.9611 9.85562 23.7173 10.2387 23.7522C11.3879 23.787 12.5023 23.8915 13.6515 23.8915C16.5768 23.8567 19.5369 23.8218 22.4622 23.7522C22.7408 23.7522 23.0891 23.7173 23.1239 24.0656C23.1587 24.3791 23.0542 24.7273 22.9846 25.0408C22.9846 25.1104 22.8105 25.1104 22.706 25.1453C22.0791 25.2149 21.4523 25.2846 20.7906 25.3891C20.5817 25.4239 20.3727 25.4935 20.1638 25.598C19.6762 25.807 19.5021 26.1204 19.6762 26.608C20.129 27.9314 20.5817 29.2897 21.1389 30.5783C23.9597 36.8472 26.8153 43.0813 29.671 49.3154C30.6461 51.4747 31.6908 53.5991 32.7007 55.7236C32.7704 55.8629 32.84 56.0022 32.9445 56.2112C33.2579 55.5494 33.5714 54.9226 33.85 54.3305C35.2778 51.3353 36.6708 48.3054 38.0986 45.3102C38.4817 44.544 38.4817 43.8127 38.1334 43.0465C36.6359 39.7727 35.1733 36.4989 33.7107 33.26C32.9445 31.5535 32.1435 29.8818 31.3077 28.2101C31.0988 27.827 30.8898 27.4439 30.6461 27.0608C29.8799 25.8766 28.7655 25.3194 27.4074 25.2497C27.1288 25.2497 26.885 25.2149 26.6064 25.1801C26.1885 25.1453 25.9447 24.8318 26.0144 24.3791C26.0492 23.9263 26.293 23.7522 26.7457 23.787C29.9844 23.8218 33.2231 23.8915 36.4618 23.9263C37.2976 23.9263 38.1334 23.8567 38.9692 23.787C39.3871 23.7522 39.5612 23.9263 39.5961 24.3791C39.6309 24.8666 39.4568 25.1453 39.0737 25.1801C38.3424 25.2497 37.611 25.2846 36.8797 25.4239C35.9743 25.5632 35.6957 25.9811 35.9743 26.8518C36.2529 27.7225 36.6011 28.5583 36.9494 29.3594C38.2727 32.3893 39.6309 35.3845 40.9542 38.3796C40.9891 38.4841 41.0587 38.5886 41.1284 38.7627C41.198 38.6931 41.2328 38.6582 41.2677 38.5886C42.9044 35.2103 44.4715 31.7624 45.7601 28.2101C45.9342 27.6877 46.0735 27.1652 46.1431 26.6428C46.2476 25.807 45.8645 25.3891 45.0287 25.3194C44.4019 25.2497 43.7402 25.2149 43.1134 25.1453C42.7651 25.1104 42.5213 24.797 42.5562 24.3442C42.591 23.9263 42.7999 23.7522 43.2178 23.7522C45.9342 23.787 48.6854 23.8567 51.4017 23.8915C52.2375 23.8915 53.0733 23.8218 53.9091 23.7522C54.327 23.7173 54.4663 23.8567 54.5011 24.3094C54.5359 24.8666 54.3966 25.1104 53.9787 25.1453C53.5957 25.1801 53.2126 25.2149 52.8643 25.2149C51.6455 25.2497 50.6704 25.807 49.939 26.7821C49.4515 27.409 49.0336 28.1056 48.6505 28.8021C46.5959 32.5286 44.7501 36.3248 42.9741 40.1906C42.5214 41.131 42.6258 41.932 43.0437 42.8027C44.2974 45.5192 45.5163 48.2357 46.7352 50.9871C47.4317 52.5891 48.163 54.1564 48.8595 55.7584C48.9291 55.8977 48.9988 56.037 49.0684 56.2112C49.1729 56.0022 49.2425 55.8977 49.2774 55.7584C52.7599 47.8875 55.9986 39.912 59.1328 31.9017C59.7248 30.4042 60.2472 28.8718 60.7348 27.3394C61.1178 26.1553 60.5955 25.4239 59.3418 25.2846C58.7149 25.2149 58.0881 25.1801 57.4612 25.1104C57.0781 25.0756 56.8344 24.7622 56.8692 24.3094C56.8692 23.8915 57.113 23.6825 57.5309 23.7173C60.2124 23.7522 62.8939 23.8218 65.5754 23.8567C66.4112 23.8567 67.247 23.787 68.0828 23.7173C68.5355 23.6825 68.7445 23.8567 68.8141 24.2746C68.8838 24.7273 68.64 25.0756 68.2569 25.1104C67.8042 25.1801 67.3515 25.2149 66.8988 25.2846C65.7844 25.4587 64.9137 26.0856 64.3914 27.0259C63.6252 28.3494 62.8939 29.7076 62.3019 31.1007C58.8542 39.0762 55.4414 47.0864 52.0634 55.0967C50.9141 57.8132 49.8694 60.5646 48.8246 63.3159C48.6505 63.7338 48.3371 63.7687 47.9889 63.7687C47.6406 63.7338 47.2575 63.8035 47.0834 63.3507C45.2377 58.3356 42.9741 53.4598 40.7801 48.584C40.5015 48.0964 40.2577 47.5392 39.9791 46.9123Z" fill="white" fill-opacity="0.8"/>
<path d="M37.8199 11.5278C38.1682 11.5627 38.5164 11.5975 38.8299 11.6323C39.1084 12.4333 39.3522 12.6075 40.188 12.6423C40.7104 12.6771 41.2328 12.6771 41.7551 12.712C43.3223 12.8861 44.1581 13.7568 44.0884 15.324C44.0188 16.5081 43.8098 17.6923 43.6009 18.8764C43.3571 20.0605 43.0437 21.2098 42.7651 22.3591C42.6954 22.6029 42.5909 22.7422 42.3472 22.777C41.6507 22.8815 40.989 22.986 40.2228 23.1253C40.397 22.777 40.5363 22.4636 40.6407 22.1501C41.1283 20.8267 41.6855 19.5033 42.0686 18.145C42.4516 16.7519 41.79 16.0205 40.3273 15.9509C39.7005 15.9161 39.0388 15.9161 38.412 15.8812C37.6806 15.8116 37.4717 15.533 37.4717 14.8364C37.4717 14.6971 37.4717 14.5578 37.5065 14.4185C37.5762 13.4433 37.6806 12.503 37.8199 11.5278Z" fill="white" fill-opacity="0.8"/>
<path d="M48.7898 36.2552C48.7898 36.6731 48.7898 37.0214 48.7898 37.4045C49.1032 37.2651 49.3122 37.1258 49.556 37.0214C50.2176 36.7079 50.8793 36.4989 51.6106 36.6034C52.934 36.8124 53.8742 37.892 53.9787 39.2503C54.1528 42.0713 52.0982 43.9868 49.2774 43.6037C48.9291 43.5689 48.755 43.6385 48.755 43.9868C48.755 44.8923 48.755 45.763 48.7898 46.6685C48.7898 47.0168 48.9988 47.2257 49.347 47.2606C49.5211 47.2954 49.6953 47.2954 49.8346 47.3302C49.939 47.365 50.0087 47.4695 50.0783 47.5392C49.9739 47.6088 49.8694 47.7133 49.7649 47.7133C48.9988 47.7133 48.2326 47.7133 47.4665 47.7133C47.2227 47.7133 46.9789 47.7481 46.7003 47.7133C46.5958 47.7133 46.5262 47.6088 46.4565 47.5392C46.5262 47.4695 46.5958 47.365 46.6655 47.3302C47.4665 47.0864 47.5013 47.0864 47.5013 46.2157C47.5013 43.6385 47.5013 41.0265 47.5013 38.4493C47.5013 38.0662 47.4316 37.7527 47.0834 37.5089C47.0137 37.4741 46.9789 37.1258 47.0486 37.091C47.6406 36.8472 48.163 36.6034 48.7898 36.2552ZM48.7898 40.1906C48.7898 40.7827 48.755 41.3748 48.7898 41.932C48.8246 42.1758 48.9291 42.4892 49.1381 42.6634C49.8346 43.3599 51.0883 43.3251 51.7847 42.6634C52.725 41.723 52.9688 39.7031 52.2375 38.4841C51.6106 37.4741 50.4614 37.091 49.3818 37.6134C48.9988 37.7876 48.7898 38.0662 48.7898 38.4841C48.7898 39.0413 48.7898 39.5986 48.7898 40.1906Z" fill="white" fill-opacity="0.8"/>
<path d="M32.631 40.4344C32.631 40.6434 32.631 40.7827 32.631 40.8872C32.5962 42.8375 32.5962 44.7878 32.5962 46.7381C32.5962 47.3999 32.7355 47.5392 33.3972 47.6785C33.5016 47.7133 33.6061 47.8526 33.7106 47.9571C33.6061 48.0268 33.4668 48.1312 33.3623 48.1312C32.4221 48.1312 31.447 48.1312 30.5067 48.1312C30.4022 48.1312 30.2629 48.0268 30.1584 47.9571C30.2629 47.8526 30.3326 47.7133 30.4719 47.7133C31.1684 47.574 31.3077 47.4695 31.3077 46.773C31.3077 45.4495 31.3077 44.0913 31.3077 42.7678C31.3077 42.3499 31.1684 42.0365 30.8201 41.8275C30.5067 41.6185 30.5415 41.4792 30.8898 41.3051C31.4121 40.9917 32.0042 40.713 32.631 40.4344Z" fill="white" fill-opacity="0.8"/>
<path d="M30.4022 12.7119C30.8201 12.9209 31.1335 13.1299 31.4469 13.2344C31.5862 13.304 31.83 13.304 31.9693 13.2344C32.3176 13.095 32.5962 12.9209 33.0141 12.7119C32.9444 13.095 32.9096 13.4085 32.8399 13.7219C32.7703 14.0354 32.8051 14.2792 33.0837 14.4881C33.3275 14.6971 33.5364 14.9409 33.7802 15.2195C33.5016 15.2543 33.223 15.3588 32.9444 15.3588C32.5265 15.3588 32.2479 15.533 32.1086 15.9509C32.0041 16.2295 31.8648 16.4733 31.6907 16.7867C31.5166 16.4385 31.3425 16.125 31.2032 15.8116C31.0987 15.4981 30.8549 15.3936 30.5763 15.3936C30.2629 15.3588 29.9495 15.2892 29.6361 15.2543C29.6012 15.2195 29.6012 15.1847 29.5664 15.1499C29.8102 14.9409 30.054 14.6971 30.2977 14.4881C30.5763 14.2792 30.6112 14.0354 30.5415 13.7219C30.5067 13.4085 30.4719 13.095 30.4022 12.7119Z" fill="white" fill-opacity="0.8"/>
<path d="M38.4122 9.96059C38.6211 9.43819 38.9345 9.02026 38.9345 8.5675C38.8997 8.14958 38.5166 7.76648 38.238 7.31372C38.6211 7.34855 38.9345 7.38338 39.248 7.41821C39.5614 7.48786 39.8052 7.41821 40.0141 7.13959C40.1882 6.86097 40.432 6.65201 40.7106 6.33856C40.8151 6.75649 40.8499 7.13959 40.9892 7.48786C41.0588 7.662 41.1981 7.83613 41.3374 7.90579C41.6509 8.07992 41.9991 8.18441 42.417 8.35854C42.0339 8.60233 41.6857 8.74164 41.3723 8.98543C41.233 9.08991 41.1285 9.26405 41.0937 9.43819C41.024 9.78646 41.024 10.1696 40.9892 10.5875C40.6758 10.3089 40.3972 10.0999 40.1534 9.82129C39.9793 9.61232 39.7703 9.57749 39.5266 9.64715C39.1435 9.78646 38.7952 9.85611 38.4122 9.96059Z" fill="white" fill-opacity="0.8"/>
<path d="M46.6306 15.115C46.9092 14.8712 47.1878 14.6623 47.4664 14.3836C47.5709 14.2792 47.6405 14.0354 47.6057 13.8961C47.5709 13.513 47.5012 13.1647 47.4316 12.7468C47.745 12.9209 48.0584 13.0254 48.3022 13.1995C48.6156 13.4085 48.8594 13.4085 49.1728 13.1995C49.4166 13.0254 49.73 12.9209 50.0435 12.7468C49.9738 13.1647 49.9042 13.513 49.8693 13.8961C49.8693 14.0702 49.939 14.2792 50.0435 14.4185C50.2872 14.6971 50.5658 14.9061 50.8793 15.2195C50.4962 15.2892 50.1828 15.3588 49.9042 15.3588C49.5211 15.3588 49.3121 15.5329 49.2077 15.8812C49.1032 16.1598 48.9291 16.4385 48.7549 16.7867C48.5808 16.4036 48.4067 16.125 48.2674 15.8116C48.1629 15.5329 47.9888 15.4285 47.7102 15.3936C47.3968 15.3588 47.0485 15.2892 46.7351 15.2543C46.6654 15.1847 46.6306 15.1498 46.6306 15.115Z" fill="white" fill-opacity="0.8"/>
<path d="M31.83 38.6234C31.238 38.6234 30.9246 38.31 30.9246 37.7179C30.9246 37.1607 31.3076 36.7776 31.8648 36.7776C32.3872 36.7776 32.7703 37.1607 32.7703 37.7179C32.7355 38.2751 32.422 38.6234 31.83 38.6234Z" fill="white" fill-opacity="0.8"/>
</svg>
