<svg width="71" height="45" viewBox="0 0 71 45" fill="none" xmlns="http://www.w3.org/2000/svg">
<path d="M30.9145 6.71459H69.5V18.8939H47.3454L24.5493 2L2 18.8939" stroke="#FFE195" stroke-width="3" stroke-miterlimit="10" stroke-linecap="round" stroke-linejoin="round"/>
<path d="M53.7105 2.39282H49.8618V6.76364H53.7105V2.39282Z" stroke="#FFE195" stroke-width="3" stroke-miterlimit="10" stroke-linecap="round" stroke-linejoin="round"/>
<path d="M6.24341 15.751V43.4001H66.8849V19.0905" stroke="#FFE195" stroke-width="3" stroke-miterlimit="10" stroke-linecap="round" stroke-linejoin="round"/>
<path d="M36.9344 22.9209H33.7765C32.0989 22.9209 30.7173 24.296 30.7173 25.9657V43.3999H39.9936V25.9166C39.9936 24.2469 38.612 22.9209 36.9344 22.9209Z" stroke="#FFE195" stroke-width="3" stroke-miterlimit="10" stroke-linecap="round" stroke-linejoin="round"/>
<path d="M59.0393 26.7517H48.2827V37.4578H59.0393V26.7517Z" stroke="#FFE195" stroke-width="3" stroke-miterlimit="10"/>
<path d="M33.9736 32.2029V33.7253" stroke="#FFE195" stroke-width="3" stroke-miterlimit="10"/>
<path d="M53.6611 32.1047V26.7517" stroke="#FFE195" stroke-width="3" stroke-miterlimit="10" stroke-linecap="round" stroke-linejoin="round"/>
<path d="M48.2827 32.2029H59.0886" stroke="#FFE195" stroke-width="3" stroke-miterlimit="10" stroke-linecap="round" stroke-linejoin="round"/>
<path d="M23.7598 26.7517H13.0032V37.4578H23.7598V26.7517Z" stroke="#FFE195" stroke-width="3" stroke-miterlimit="10"/>
<path d="M18.3816 32.1047V26.7517" stroke="#FFE195" stroke-width="3" stroke-miterlimit="10" stroke-linecap="round" stroke-linejoin="round"/>
<path d="M13.0032 32.2029H23.8091" stroke="#FFE195" stroke-width="3" stroke-miterlimit="10" stroke-linecap="round" stroke-linejoin="round"/>
</svg>
