<svg width="58" height="57" viewBox="0 0 58 57" fill="none" xmlns="http://www.w3.org/2000/svg">
<path d="M38.7146 12.8211L13.3816 37.7671L6.77515 31.2359L32.1082 6.28992" stroke="#FFE195" stroke-width="3" stroke-miterlimit="10" stroke-linecap="round" stroke-linejoin="round"/>
<path d="M3.5464 36.9324L7.61955 40.9591C8.31497 41.6466 9.45744 41.6466 10.1529 40.9591L13.4312 37.7672L6.77512 31.2361L3.49673 34.428C2.85098 35.1155 2.80131 36.2449 3.5464 36.9324Z" stroke="#FFE195" stroke-width="3" stroke-miterlimit="10" stroke-linecap="round"/>
<path d="M38.7146 12.8213L41.8937 3L32.1082 6.29012C32.9526 9.43293 35.4362 11.8882 38.5656 12.7722L38.7146 12.8213Z" stroke="#FFE195" stroke-width="3" stroke-miterlimit="10" stroke-linecap="round" stroke-linejoin="round"/>
<path d="M32.3564 12.4283L28.6807 16.0622" stroke="#FFE195" stroke-width="3" stroke-miterlimit="10" stroke-linecap="round" stroke-linejoin="round"/>
<path d="M4.44043 55.2H56.0999V4.12939L4.44043 55.2ZM46.6621 45.9189H27.0911L46.6621 26.571V45.9189Z" stroke="#FFE195" stroke-width="3" stroke-miterlimit="10" stroke-linecap="round"/>
<path d="M53.7656 15.0802H52.2754" stroke="#FFE195" stroke-width="3" stroke-miterlimit="10" stroke-linecap="round"/>
<path d="M53.7654 19.3523H51.0334" stroke="#FFE195" stroke-width="3" stroke-miterlimit="10" stroke-linecap="round"/>
<path d="M53.7656 23.5756H52.2754" stroke="#FFE195" stroke-width="3" stroke-miterlimit="10" stroke-linecap="round"/>
<path d="M53.7654 27.8478H51.0334" stroke="#FFE195" stroke-width="3" stroke-miterlimit="10" stroke-linecap="round"/>
<path d="M53.7656 32.0708H52.2754" stroke="#FFE195" stroke-width="3" stroke-miterlimit="10" stroke-linecap="round"/>
<path d="M53.7654 36.3431H51.0334" stroke="#FFE195" stroke-width="3" stroke-miterlimit="10" stroke-linecap="round"/>
<path d="M53.7656 40.5663H52.2754" stroke="#FFE195" stroke-width="3" stroke-miterlimit="10" stroke-linecap="round"/>
<path d="M53.7654 44.8385H51.0334" stroke="#FFE195" stroke-width="3" stroke-miterlimit="10" stroke-linecap="round"/>
<path d="M53.7656 49.0618H52.2754" stroke="#FFE195" stroke-width="3" stroke-miterlimit="10" stroke-linecap="round"/>
</svg>
