<svg width="66" height="64" viewBox="0 0 66 64" fill="none" xmlns="http://www.w3.org/2000/svg">
<path d="M32.8245 15.2141L34.866 19.3768C35.3035 20.2965 36.1784 20.9257 37.1992 21.0709L41.8169 21.7486L38.463 24.9916C37.7339 25.7177 37.3936 26.7341 37.588 27.7022L38.3658 32.3005L34.2341 30.1224C33.3592 29.6383 32.2412 29.6383 31.3662 30.1224L27.2346 32.2521L28.0123 27.6538C28.2067 26.6373 27.8665 25.6209 27.1374 24.9432L23.7834 21.7002L28.4012 21.0225C29.4219 20.8773 30.2969 20.2481 30.7343 19.3284L32.8245 15.2141Z" stroke="#FFE195" stroke-width="3" stroke-miterlimit="10" stroke-linecap="round"/>
<path d="M32.8244 45.5631C44.9048 45.5631 54.6979 35.8112 54.6979 23.7816C54.6979 11.7519 44.9048 2 32.8244 2C20.744 2 10.9509 11.7519 10.9509 23.7816C10.9509 35.8112 20.744 45.5631 32.8244 45.5631Z" stroke="#FFE195" stroke-width="3" stroke-miterlimit="10"/>
<path d="M49.8858 23.7814C49.8858 14.3911 42.2544 6.79175 32.8245 6.79175C23.3946 6.79175 15.7632 14.3911 15.7632 23.7814" stroke="#FFE195" stroke-width="3" stroke-miterlimit="10" stroke-linecap="round"/>
<path d="M52.8022 38.7865L61.6002 50.6453L50.8579 48.8544L49.0594 59.6L38.4629 44.8853" stroke="#FFE195" stroke-width="3" stroke-miterlimit="10" stroke-linecap="round"/>
<path d="M12.798 38.7865L4 50.6453L14.7909 48.8544L16.5408 59.6L27.1373 44.8853" stroke="#FFE195" stroke-width="3" stroke-miterlimit="10" stroke-linecap="round"/>
</svg>
